<svg x="0" y="0" width="48" height="48" version="1.1" xmlns="http://www.w3.org/2000/svg" xmlns:xlink="http://www.w3.org/1999/xlink"><defs><linearGradient x1="14.15173" y1="11.68966" x2="55.06148" y2="57.52354" gradientUnits="userSpaceOnUse" id="color-1"><stop offset="0" stop-color="#000000" stop-opacity="0.7"></stop><stop offset="1" stop-color="#000000" stop-opacity="0"></stop></linearGradient><filter id="dropshadow"><feColorMatrix type="matrix" values="0 0 0 0 .05  0 0 0 0 .15  0 0 0 0 .1  0 0 0 .8 0"></feColorMatrix> <feOffset dx="0" dy="1"></feOffset> <feGaussianBlur stdDeviation="1"></feGaussianBlur> <feComposite in="SourceGraphic"></feComposite></filter></defs><g fill="none" stroke="none" stroke-width="none" stroke-linecap="butt" stroke-linejoin="miter" stroke-miterlimit="none" stroke-dasharray="" stroke-dashoffset="0" font-family="none" font-weight="normal" font-size="none" text-anchor="start" mix-blend-mode="normal"><g fill="#000000" stroke="none" stroke-width="1" stroke-miterlimit="4" font-family="&quot;Open Sans&quot;, sans-serif" font-size="14"></g><path d="M3,24c0,-11.59798 9.40202,-21 21,-21c11.59798,0 21,9.40202 21,21c0,11.59798 -9.40202,21 -21,21c-11.59798,0 -21,-9.40202 -21,-21z" fill="#303f9f" stroke-width="1" stroke-miterlimit="10" font-family="sans-serif" font-size="12" filter="url(#dropshadow)"></path><path d="M24.99269,44.97695l-9.75378,-9.75378c-0.67016,-0.67015 -1.08718,-1.59343 -1.08718,-2.60593l0,-18.46551c0,-1.35414 1.10793,-2.46207 2.46207,-2.46207l17.23447,0l11.11848,11.11848c0.02207,0.39448 0.03325,0.79187 0.03325,1.19186c0,11.26522 -8.87025,20.45868 -20.00731,20.97695z" fill="url(#color-1)" stroke-width="1" stroke-miterlimit="10" font-family="sans-serif" font-size="12"></path><path d="M33.84827,11.68966l0,19.69654l-16.00344,0c-0.69557,0 -1.23103,0.53546 -1.23103,1.23103c0,0.69557 0.53546,1.23103 1.23103,1.23103l16.00344,0l0,2.46207l-16.00344,0c-2.02501,0 -3.6931,-1.66809 -3.6931,-3.6931l0,-18.46551c0,-1.35414 1.10793,-2.46207 2.46207,-2.46207z M24,17.84483l-3.6931,0l0,2.46207l3.6931,0l0,8.61724l2.46207,0l0,-8.61724l3.6931,0l0,-2.46207l-3.6931,0l0,-3.6931l-2.46207,0z" fill="#ffffff" stroke="none" stroke-width="0" stroke-miterlimit="4" font-family="Bitstream Vera Sans" font-size="14"></path></g></svg>